<?xml version="1.0" encoding="utf-8"?>
<!-- Generator: Adobe Illustrator 26.4.1, SVG Export Plug-In . SVG Version: 6.00 Build 0)  -->
<svg version="1.1" id="Lager_1" xmlns="http://www.w3.org/2000/svg" xmlns:xlink="http://www.w3.org/1999/xlink" x="0px" y="0px"
	 viewBox="0 0 164 71" style="enable-background:new 0 0 164 71;" xml:space="preserve">
<style type="text/css">
	.st0{fill:#FFCC00;}
</style>
<g>
	<path class="st0" d="M19,18.9h16.3v4.2H23.7v4.4h10.2v4.2H23.7v4.5h11.7v4.2H19C19,40.5,19,18.9,19,18.9z"/>
	<path class="st0" d="M36.9,32.4L36.9,32.4c0-4.8,3.6-8.7,8.7-8.7c3.1,0,5.1,1,6.6,2.8l-2.9,3.1c-1-1.1-2.1-1.8-3.8-1.8
		c-2.3,0-4,2.1-4,4.5v0.1c0,2.5,1.6,4.6,4.2,4.6c1.6,0,2.7-0.7,3.8-1.8l2.7,2.8c-1.6,1.8-3.5,3-6.8,3C40.5,40.9,36.9,37.1,36.9,32.4
		z"/>
	<path class="st0" d="M52.8,32.4L52.8,32.4c0-4.8,3.8-8.7,9-8.7c5.1,0,8.9,3.8,8.9,8.6v0.1c0,4.8-3.8,8.6-9,8.6
		C56.6,40.9,52.8,37.1,52.8,32.4z M66.1,32.4L66.1,32.4c0-2.5-1.8-4.7-4.4-4.7c-2.7,0-4.3,2.1-4.3,4.5v0.1c0,2.4,1.8,4.6,4.4,4.6
		C64.5,36.9,66.1,34.8,66.1,32.4z"/>
	<path class="st0" d="M72.9,24h4.7v2.4c1.1-1.5,2.7-2.7,5.2-2.7c3.9,0,7.5,3,7.5,8.6v0.1c0,5.5-3.6,8.6-7.5,8.6
		c-2.5,0-4-1.1-5.2-2.5v7.1h-4.7V24z M85.6,32.3L85.6,32.3c0-2.8-1.9-4.7-4-4.7s-4,1.8-4,4.6v0.1c0,2.7,1.8,4.6,4,4.6
		C83.7,36.9,85.6,35.1,85.6,32.3z"/>
	<path class="st0" d="M92.5,18.9h4.7v7.5c1.1-1.4,2.5-2.7,4.9-2.7c3.6,0,5.6,2.3,5.6,6.1v10.7H103v-9.2c0-2.2-1-3.4-2.8-3.4
		s-2.9,1.1-2.9,3.4v9.2h-4.7L92.5,18.9L92.5,18.9z"/>
	<path class="st0" d="M109.7,32.4L109.7,32.4c0-4.8,3.8-8.7,9-8.7c5.1,0,8.9,3.8,8.9,8.6v0.1c0,4.8-3.8,8.6-9,8.6
		C113.5,40.9,109.7,37.1,109.7,32.4z M123,32.4L123,32.4c0-2.5-1.8-4.7-4.4-4.7c-2.7,0-4.3,2.1-4.3,4.5v0.1c0,2.4,1.8,4.6,4.4,4.6
		C121.4,36.9,123,34.8,123,32.4z"/>
	<path class="st0" d="M129.8,24h4.7v2.3c1.1-1.4,2.5-2.7,4.9-2.7c3.6,0,5.6,2.3,5.6,6.1v10.7h-4.7v-9.2c0-2.2-1-3.4-2.8-3.4
		c-1.8,0-2.9,1.1-2.9,3.4v9.2h-4.7L129.8,24L129.8,24z"/>
</g>
<g>
	<path d="M89.2,49.6c-0.8-0.3-1.2-0.4-1.2-0.9c0-0.4,0.6-0.6,1-0.6c0.4,0,0.9,0.1,1.2,0.3c0.1,0,0.2,0.1,0.2,0
		c0.1,0,0.1-0.1,0.2-0.2l0.1-0.3c0.1-0.1,0-0.3-0.1-0.4c-0.4-0.3-1-0.5-1.6-0.5c-1.2,0-2,0.6-2,1.5c0,1.2,1,1.4,1.8,1.7
		c0.8,0.3,1.2,0.4,1.2,0.9c0,0.5-0.6,0.7-1.1,0.7c-0.5,0-1.1-0.3-1.4-0.6c-0.1-0.1-0.2-0.1-0.3-0.1s-0.2,0.1-0.2,0.1l-0.2,0.3
		c-0.1,0.1,0,0.3,0,0.4c0.5,0.5,1.3,0.8,2,0.8c1.2,0,2-0.6,2-1.6C91,50.1,90,49.8,89.2,49.6"/>
	<path d="M94.6,47.5c0-0.1-0.2-0.2-0.3-0.2H94c-0.1,0-0.2,0.1-0.3,0.2l-2.3,5c0,0.1,0,0.2,0,0.3c0,0.1,0.1,0.1,0.3,0.1h0.3
		c0.1,0,0.2-0.1,0.3-0.2l0.6-1.3h2.6l0.6,1.3c0,0.1,0.2,0.2,0.3,0.2h0.3c0.1,0,0.2,0,0.3-0.1c0-0.1,0.1-0.2,0-0.3L94.6,47.5z
		 M93.3,50.6l0.9-1.9l0.9,1.9H93.3z"/>
	<path d="M98.4,47.3h-0.3c-0.2,0-0.3,0.1-0.3,0.3v5c0,0.2,0.1,0.3,0.3,0.3h0.3c0.2,0,0.3-0.1,0.3-0.3v-5
		C98.7,47.4,98.6,47.3,98.4,47.3"/>
	<path d="M104.7,47.3h-0.3c-0.2,0-0.3,0.1-0.3,0.3v3.7l-2.8-3.8c0-0.1-0.1-0.1-0.2-0.1h-0.4c-0.2,0-0.3,0.1-0.3,0.3v5
		c0,0.2,0.1,0.3,0.3,0.3h0.3c0.2,0,0.3-0.1,0.3-0.3V49l2.8,3.8c0,0.1,0.1,0.1,0.2,0.1h0.3c0.2,0,0.3-0.1,0.3-0.3v-5
		C105,47.4,104.9,47.3,104.7,47.3"/>
	<path d="M109.9,47.3h-3.7c-0.2,0-0.3,0.1-0.3,0.3v0.3c0,0.2,0.1,0.3,0.3,0.3h1.4v4.4c0,0.2,0.1,0.3,0.3,0.3h0.3
		c0.2,0,0.3-0.1,0.3-0.3v-4.4h1.4c0.2,0,0.3-0.1,0.3-0.3v-0.3C110.2,47.4,110.1,47.3,109.9,47.3"/>
	<path d="M112.1,50h-1.6c-0.2,0-0.3,0.1-0.3,0.3v0.3c0,0.2,0.1,0.3,0.3,0.3h1.6c0.2,0,0.3-0.1,0.3-0.3v-0.3
		C112.4,50.2,112.3,50,112.1,50"/>
	<path d="M118.3,49.9h-0.3l0,0h-0.9c-0.2,0-0.3,0.1-0.3,0.3v0.3c0,0.2,0.1,0.3,0.3,0.3h0.6v0.9c-0.3,0.2-0.8,0.4-1.2,0.4
		c-1.1,0-2-0.9-2-1.9c0-1.1,0.9-1.9,2-1.9c0.5,0,1,0.2,1.4,0.5c0.1,0,0.1,0.1,0.2,0.1c0.1,0,0.2,0,0.2-0.1l0.2-0.2
		c0.1-0.1,0.1-0.3,0-0.4c-0.5-0.5-1.2-0.7-2-0.7c-1.6,0-2.9,1.3-2.9,2.8c0,1.6,1.3,2.8,2.9,2.8c0.7,0,1.4-0.3,2-0.7
		c0.1,0,0.1-0.1,0.1-0.2v-1.8C118.6,50,118.5,49.9,118.3,49.9"/>
	<path d="M122.6,47.3c-1.6,0-2.9,1.3-2.9,2.8c0,1.6,1.3,2.8,2.9,2.8c1.6,0,2.9-1.3,2.9-2.8C125.5,48.5,124.2,47.3,122.6,47.3
		 M122.6,52c-1.1,0-2-0.9-2-1.9c0-1.1,0.9-1.9,2-1.9c1.1,0,2,0.9,2,1.9C124.6,51.2,123.7,52,122.6,52"/>
	<path d="M130.2,49.9c0.3-0.3,0.5-0.7,0.5-1.1c0-1-0.7-1.5-1.9-1.5h-2c-0.2,0-0.3,0.1-0.3,0.3v5c0,0.2,0.1,0.3,0.3,0.3h2.1
		c1.3,0,2.1-0.6,2.1-1.7C130.9,50.7,130.7,50.2,130.2,49.9 M128.8,49.6h-1.4v-1.4h1.4c0.4,0,1,0.1,1,0.7
		C129.8,49.3,129.5,49.6,128.8,49.6 M127.4,50.5h1.4c0.5,0,1.2,0.1,1.2,0.8c0,0.7-0.7,0.8-1.2,0.8h-1.4V50.5z"/>
	<path d="M134.6,47.5c0-0.1-0.2-0.2-0.3-0.2H134c-0.1,0-0.2,0.1-0.3,0.2l-2.3,5c0,0.1,0,0.2,0,0.3c0,0.1,0.1,0.1,0.3,0.1h0.3
		c0.1,0,0.2-0.1,0.3-0.2l0.6-1.3h2.6l0.6,1.3c0,0.1,0.2,0.2,0.3,0.2h0.3c0.1,0,0.2,0,0.3-0.1c0-0.1,0.1-0.2,0-0.3L134.6,47.5z
		 M133.3,50.6l0.9-1.9l0.9,1.9H133.3z"/>
	<path d="M138.4,47.3h-0.3c-0.2,0-0.3,0.1-0.3,0.3v5c0,0.2,0.1,0.3,0.3,0.3h0.3c0.2,0,0.3-0.1,0.3-0.3v-5
		C138.7,47.4,138.6,47.3,138.4,47.3"/>
	<path d="M144.7,47.3h-0.3c-0.2,0-0.3,0.1-0.3,0.3v3.7l-2.8-3.8c0-0.1-0.1-0.1-0.2-0.1h-0.3c-0.2,0-0.3,0.1-0.3,0.3v5
		c0,0.2,0.1,0.3,0.3,0.3h0.3c0.2,0,0.3-0.1,0.3-0.3V49l2.8,3.8c0,0.1,0.1,0.1,0.2,0.1h0.3c0.2,0,0.3-0.1,0.3-0.3v-5
		C145,47.4,144.8,47.3,144.7,47.3"/>
</g>
</svg>
